<svg xmlns="http://www.w3.org/2000/svg" width="23.849" height="21.529" viewBox="0 0 23.849 21.529">
  <g id="Groupe_81" data-name="Groupe 81" transform="translate(0 1396.113)">
    <path id="Tracé_195" data-name="Tracé 195" d="M1679.418,18.559c.019-.374.038-.6.041-.822,0-.333.156-.534.5-.536q1.735-.011,3.47,0c.387,0,.514.249.514.6,0,.787,0,1.573,0,2.36,0,.764.015,1.527-.008,2.29a1.1,1.1,0,0,0,.393.907c.981.914,1.942,1.85,2.907,2.782.748.721.746,1.1,0,1.849-.1.1-.194.2-.3.293-.516.482-.687.505-1.356.193a2.452,2.452,0,0,0-.25-.08c-.014.22-.037.415-.038.61q0,3.54,0,7.079a4.966,4.966,0,0,1-.016.555.457.457,0,0,1-.454.439c-.161.014-.323.011-.485.011l-16.935,0c-.139,0-.278.005-.416,0a.5.5,0,0,1-.539-.512c-.012-.184-.01-.37-.01-.555q0-3.436,0-6.871c0-.229,0-.458,0-.67-.083-.031-.133-.069-.159-.056-.837.39-.946.374-1.578-.245l-.1-.1c-.877-.874-.875-1.182.016-2.039q5.174-4.98,10.349-9.959c.724-.7,1.084-.694,1.814.007.684.657,1.366,1.316,2.052,1.97.147.141.308.268.584.507m4.955,17.565v-.849c0-2.407-.013-4.813.009-7.22a1.374,1.374,0,0,0-.5-1.135c-2.488-2.25-4.957-4.521-7.434-6.782-.182-.166-.382-.314-.564-.462a1.841,1.841,0,0,0-.222.141q-3.974,3.624-7.951,7.245a1.032,1.032,0,0,0-.348.851c.01,2.545,0,5.091.008,7.636,0,.18.027.359.045.576Zm-18.786-8.415c.182-.149.31-.246.428-.354q1.409-1.287,2.814-2.577,3.1-2.833,6.2-5.663c.658-.6,1.047-.594,1.683-.013q4.353,3.978,8.7,7.962c.234.214.477.42.691.609l.743-.605c-.2-.205-.332-.36-.48-.5-.883-.85-1.743-1.726-2.664-2.533a1.8,1.8,0,0,1-.658-1.568c.045-1.2.014-2.405.011-3.608,0-.225-.019-.45-.029-.659a6.514,6.514,0,0,0-2.684.045c0,.461.027.947-.008,1.428s-.381.616-.774.336a3.393,3.393,0,0,1-.358-.327q-1.451-1.393-2.9-2.785c-.128-.122-.275-.226-.458-.375l-10.927,10.509.676.682" transform="translate(-1663.947 -1411.667)" fill="#06022E"/>
    <path id="Tracé_196" data-name="Tracé 196" d="M1767.2,154.914a3.04,3.04,0,0,1,2.068-.762,2.714,2.714,0,0,1,2.519,3.561,5.61,5.61,0,0,1-.92,1.61,12.665,12.665,0,0,1-3.173,2.667.836.836,0,0,1-1.02,0,12.745,12.745,0,0,1-3.22-2.719,5.664,5.664,0,0,1-.838-1.424,2.708,2.708,0,0,1,.823-3.074,2.788,2.788,0,0,1,3.124-.26c.2.112.389.245.637.4m-3.844,2.012a2.477,2.477,0,0,0,.53,1.4,11.117,11.117,0,0,0,3.018,2.718.5.5,0,0,0,.63-.047,11.427,11.427,0,0,0,2.619-2.245,4.87,4.87,0,0,0,.762-1.3,1.769,1.769,0,0,0-.7-2.066,1.823,1.823,0,0,0-2.192.083c-.144.115-.256.268-.4.384a.64.64,0,0,1-.878,0c-.125-.1-.221-.238-.346-.339a1.752,1.752,0,0,0-1.941-.283,1.8,1.8,0,0,0-1.1,1.7" transform="translate(-1755.257 -1540.167)" fill="#06022E"/>
  </g>
</svg>
